<svg width="32" height="32" viewBox="0 0 32 32" fill="none" xmlns="http://www.w3.org/2000/svg">
<path d="M5.3335 25.3334V23.1112H8.00016V13.2445C8.00016 11.3853 8.55202 9.72416 9.65573 8.26118C10.7594 6.79823 12.2076 5.86675 14.0002 5.46675V4.66675C14.0002 4.11119 14.1946 3.63897 14.5835 3.25008C14.9724 2.86119 15.4446 2.66675 16.0002 2.66675C16.5557 2.66675 17.0279 2.86119 17.4168 3.25008C17.8057 3.63897 18.0002 4.11119 18.0002 4.66675V5.46675C19.7928 5.86675 21.2409 6.79823 22.3446 8.26118C23.4483 9.72416 24.0002 11.3853 24.0002 13.2445V23.1112H26.6668V25.3334H5.3335ZM16.0002 29.3334C15.2668 29.3334 14.6391 29.0723 14.1168 28.5501C13.5946 28.0279 13.3335 27.4001 13.3335 26.6667H18.6668C18.6668 27.4001 18.4057 28.0279 17.8835 28.5501C17.3613 29.0723 16.7335 29.3334 16.0002 29.3334Z" fill="#012022"/>
</svg>
