<svg width="29" height="28" viewBox="0 0 29 28" fill="none" xmlns="http://www.w3.org/2000/svg">
<g opacity="0.5">
<path d="M23.4668 24.5L16.1168 17.15C15.5334 17.6167 14.8626 17.9861 14.1043 18.2583C13.3459 18.5306 12.539 18.6667 11.6834 18.6667C9.56399 18.6667 7.77024 17.9326 6.30218 16.4646C4.83413 14.9965 4.1001 13.2028 4.1001 11.0833C4.1001 8.96389 4.83413 7.17014 6.30218 5.70208C7.77024 4.23403 9.56399 3.5 11.6834 3.5C13.8029 3.5 15.5966 4.23403 17.0647 5.70208C18.5327 7.17014 19.2668 8.96389 19.2668 11.0833C19.2668 11.9389 19.1307 12.7458 18.8584 13.5042C18.5862 14.2625 18.2168 14.9333 17.7501 15.5167L25.1001 22.8667L23.4668 24.5ZM11.6834 16.3333C13.1418 16.3333 14.3813 15.8229 15.4022 14.8021C16.423 13.7813 16.9334 12.5417 16.9334 11.0833C16.9334 9.625 16.423 8.38542 15.4022 7.36458C14.3813 6.34375 13.1418 5.83333 11.6834 5.83333C10.2251 5.83333 8.98551 6.34375 7.96468 7.36458C6.94385 8.38542 6.43343 9.625 6.43343 11.0833C6.43343 12.5417 6.94385 13.7813 7.96468 14.8021C8.98551 15.8229 10.2251 16.3333 11.6834 16.3333Z" fill="black"/>
</g>
</svg>
