<svg width="32" height="32" viewBox="0 0 32 32" fill="none" xmlns="http://www.w3.org/2000/svg">
<g opacity="0.5">
<path d="M5.33325 25.3333V23.1111H7.99992V13.2444C7.99992 11.3852 8.55177 9.72407 9.65549 8.26109C10.7592 6.79813 12.2073 5.86666 13.9999 5.46666V4.66666C13.9999 4.1111 14.1944 3.63888 14.5833 3.24999C14.9721 2.8611 15.4444 2.66666 15.9999 2.66666C16.5555 2.66666 17.0277 2.8611 17.4166 3.24999C17.8055 3.63888 17.9999 4.1111 17.9999 4.66666V5.46666C19.7925 5.86666 21.2407 6.79813 22.3444 8.26109C23.4481 9.72407 23.9999 11.3852 23.9999 13.2444V23.1111H26.6666V25.3333H5.33325ZM15.9999 29.3333C15.2666 29.3333 14.6388 29.0722 14.1166 28.55C13.5944 28.0278 13.3333 27.4 13.3333 26.6667H18.6666C18.6666 27.4 18.4055 28.0278 17.8833 28.55C17.361 29.0722 16.7333 29.3333 15.9999 29.3333Z" fill="black"/>
</g>
</svg>
